<?xml version="1.0" standalone="no"?>
<!DOCTYPE svg PUBLIC "-//W3C//DTD SVG 20010904//EN"
 "http://www.w3.org/TR/2001/REC-SVG-20010904/DTD/svg10.dtd">
<svg version="1.0" xmlns="http://www.w3.org/2000/svg"
 width="200.000000pt" height="200.000000pt" viewBox="0 0 200.000000 200.000000"
 preserveAspectRatio="xMidYMid meet">
<metadata>
Created by potrace 1.16, written by Peter Selinger 2001-2019
</metadata>
<g transform="translate(0.000000,200.000000) scale(0.100000,-0.100000)"
fill="#000000" stroke="none">
<path d="M834 1376 c-67 -16 -112 -50 -135 -100 -16 -36 -19 -68 -19 -276 0
-208 3 -240 19 -276 42 -92 118 -114 396 -114 110 0 206 4 213 8 9 7 12 54 10
203 l-3 194 -115 0 -115 0 -3 -102 -3 -103 -63 0 c-94 0 -96 4 -96 188 0 124
3 153 16 166 12 13 41 16 153 16 93 0 141 4 149 12 7 7 12 45 12 99 0 70 -3
88 -16 93 -29 11 -348 5 -400 -8z"/>
</g>
</svg>
